<svg viewBox="0 0 207 46" fill="none" xmlns="http://www.w3.org/2000/svg">
<path d="M82.5332 17.0218H77.0723C76.9726 16.3166 76.7689 15.6901 76.4614 15.1425C76.1538 14.5866 75.759 14.1136 75.2769 13.7237C74.7948 13.3337 74.2379 13.035 73.6062 12.8276C72.9828 12.6201 72.3054 12.5164 71.574 12.5164C70.2524 12.5164 69.1012 12.8442 68.1204 13.4996C67.1396 14.1468 66.379 15.0927 65.8387 16.3373C65.2985 17.5736 65.0283 19.0754 65.0283 20.8427C65.0283 22.6598 65.2985 24.1865 65.8387 25.4228C66.3873 26.6591 67.152 27.5925 68.1328 28.2231C69.1136 28.8537 70.2482 29.169 71.5366 29.169C72.2597 29.169 72.9288 29.0736 73.5439 28.8828C74.1673 28.6919 74.72 28.414 75.2021 28.0489C75.6842 27.6755 76.0832 27.2233 76.399 26.6923C76.7232 26.1613 76.9476 25.5555 77.0723 24.8752L82.5332 24.9001C82.3919 26.07 82.0387 27.1984 81.4735 28.2853C80.9166 29.364 80.1643 30.3306 79.2168 31.1852C78.2775 32.0316 77.1554 32.7036 75.8504 33.2015C74.5538 33.691 73.0867 33.9358 71.4493 33.9358C69.1718 33.9358 67.1354 33.4214 65.34 32.3925C63.553 31.3636 62.1399 29.8743 61.1009 27.9244C60.0703 25.9746 59.5549 23.614 59.5549 20.8427C59.5549 18.0631 60.0786 15.6984 61.1259 13.7486C62.1732 11.7987 63.5945 10.3135 65.3899 9.29293C67.1853 8.26406 69.2051 7.74963 71.4493 7.74963C72.9288 7.74963 74.3003 7.95707 75.5637 8.37193C76.8354 8.78679 77.9617 9.39249 78.9425 10.189C79.9233 10.9773 80.7212 11.9439 81.3363 13.0889C81.9597 14.2339 82.3587 15.5449 82.5332 17.0218Z" fill="black"/>
<path d="M92.3243 33.9607C90.3876 33.9607 88.7127 33.55 87.2997 32.7285C85.895 31.8988 84.8103 30.7455 84.0456 29.2686C83.2809 27.7834 82.8985 26.0617 82.8985 24.1035C82.8985 22.1288 83.2809 20.403 84.0456 18.926C84.8103 17.4408 85.895 16.2875 87.2997 15.4661C88.7127 14.6364 90.3876 14.2215 92.3243 14.2215C94.2609 14.2215 95.9316 14.6364 97.3363 15.4661C98.7494 16.2875 99.8382 17.4408 100.603 18.926C101.368 20.403 101.75 22.1288 101.75 24.1035C101.75 26.0617 101.368 27.7834 100.603 29.2686C99.8382 30.7455 98.7494 31.8988 97.3363 32.7285C95.9316 33.55 94.2609 33.9607 92.3243 33.9607ZM92.3492 29.8535C93.2303 29.8535 93.9659 29.6046 94.556 29.1068C95.1461 28.6006 95.5908 27.912 95.8901 27.0408C96.1976 26.1695 96.3514 25.178 96.3514 24.0662C96.3514 22.9544 96.1976 21.9628 95.8901 21.0916C95.5908 20.2204 95.1461 19.5317 94.556 19.0256C93.9659 18.5195 93.2303 18.2664 92.3492 18.2664C91.4598 18.2664 90.7117 18.5195 90.105 19.0256C89.5065 19.5317 89.0535 20.2204 88.746 21.0916C88.4467 21.9628 88.2971 22.9544 88.2971 24.0662C88.2971 25.178 88.4467 26.1695 88.746 27.0408C89.0535 27.912 89.5065 28.6006 90.105 29.1068C90.7117 29.6046 91.4598 29.8535 92.3492 29.8535Z" fill="black"/>
<path d="M102.57 33.5873V14.4704H107.632V17.8432H107.857C108.256 16.7231 108.921 15.8395 109.852 15.1923C110.783 14.5451 111.896 14.2215 113.193 14.2215C114.506 14.2215 115.624 14.5492 116.547 15.2047C117.469 15.8519 118.085 16.7314 118.392 17.8432H118.592C118.982 16.748 119.689 15.8727 120.711 15.2172C121.742 14.5534 122.959 14.2215 124.364 14.2215C126.151 14.2215 127.602 14.7899 128.715 15.9266C129.838 17.055 130.399 18.6564 130.399 20.7307V33.5873H125.1V21.7761C125.1 20.7141 124.817 19.9176 124.252 19.3865C123.687 18.8555 122.98 18.59 122.132 18.59C121.168 18.59 120.416 18.897 119.876 19.511C119.335 20.1167 119.065 20.9174 119.065 21.9131V33.5873H113.916V21.6641C113.916 20.7265 113.646 19.9798 113.106 19.4239C112.574 18.868 111.871 18.59 110.999 18.59C110.408 18.59 109.877 18.7394 109.403 19.0381C108.937 19.3285 108.567 19.7392 108.293 20.2702C108.019 20.7929 107.882 21.4069 107.882 22.1122V33.5873H102.57Z" fill="black"/>
<path d="M131.961 40.7561V14.4704H137.197V17.6815H137.434C137.667 17.167 138.004 16.6443 138.444 16.1133C138.893 15.5739 139.475 15.1259 140.19 14.7691C140.913 14.404 141.811 14.2215 142.883 14.2215C144.279 14.2215 145.567 14.5866 146.748 15.3167C147.928 16.0386 148.871 17.1297 149.578 18.59C150.285 20.042 150.638 21.8633 150.638 24.0537C150.638 26.1861 150.293 27.9866 149.603 29.4553C148.921 30.9156 147.99 32.0233 146.81 32.7783C145.638 33.5251 144.325 33.8984 142.87 33.8984C141.84 33.8984 140.963 33.7283 140.24 33.3882C139.525 33.048 138.939 32.6207 138.482 32.1062C138.024 31.5835 137.675 31.0566 137.434 30.5256H137.272V40.7561H131.961ZM137.16 24.0289C137.16 25.1656 137.318 26.1571 137.634 27.0034C137.95 27.8497 138.407 28.5094 139.005 28.9823C139.604 29.447 140.331 29.6793 141.187 29.6793C142.052 29.6793 142.783 29.4428 143.381 28.9699C143.98 28.4886 144.433 27.8249 144.74 26.9785C145.056 26.1239 145.214 25.1407 145.214 24.0289C145.214 22.9253 145.06 21.9545 144.753 21.1165C144.445 20.2785 143.992 19.623 143.394 19.1501C142.795 18.6771 142.06 18.4407 141.187 18.4407C140.323 18.4407 139.591 18.6688 138.993 19.1252C138.403 19.5815 137.95 20.2287 137.634 21.0667C137.318 21.9048 137.16 22.8921 137.16 24.0289Z" fill="black"/>
<path d="M151.545 33.5873V14.4704H156.695V17.8059H156.894C157.243 16.6194 157.829 15.7233 158.652 15.1176C159.475 14.5036 160.423 14.1966 161.495 14.1966C161.761 14.1966 162.048 14.2132 162.355 14.2464C162.663 14.2796 162.933 14.3252 163.165 14.3833V19.0878C162.916 19.0132 162.571 18.9468 162.131 18.8887C161.69 18.8306 161.287 18.8016 160.921 18.8016C160.14 18.8016 159.442 18.9717 158.827 19.3119C158.22 19.6438 157.738 20.1084 157.38 20.7058C157.031 21.3032 156.857 21.9919 156.857 22.7718V33.5873H151.545Z" fill="black"/>
<path d="M168.191 33.9482C166.969 33.9482 165.88 33.7366 164.924 33.3135C163.968 32.882 163.212 32.2473 162.655 31.4093C162.106 30.5629 161.832 29.5092 161.832 28.248C161.832 27.186 162.027 26.294 162.418 25.5721C162.809 24.8503 163.341 24.2695 164.014 23.8297C164.687 23.39 165.452 23.0581 166.308 22.8341C167.172 22.61 168.078 22.4524 169.026 22.3611C170.14 22.2449 171.037 22.1371 171.719 22.0375C172.401 21.9297 172.895 21.772 173.203 21.5646C173.51 21.3571 173.664 21.0501 173.664 20.6436V20.5689C173.664 19.7807 173.415 19.1708 172.916 18.7394C172.426 18.3079 171.727 18.0922 170.821 18.0922C169.866 18.0922 169.105 18.3037 168.54 18.7269C167.975 19.1418 167.601 19.6645 167.418 20.2951L162.505 19.8968C162.755 18.7352 163.245 17.7312 163.977 16.8849C164.708 16.0303 165.651 15.3748 166.807 14.9185C167.97 14.4538 169.317 14.2215 170.846 14.2215C171.91 14.2215 172.928 14.346 173.901 14.5949C174.882 14.8438 175.75 15.2296 176.507 15.7523C177.271 16.2751 177.874 16.9471 178.315 17.7686C178.755 18.5817 178.975 19.5566 178.975 20.6934V33.5873H173.938V30.9363H173.789C173.481 31.5337 173.07 32.0606 172.554 32.517C172.039 32.965 171.42 33.3176 170.697 33.5749C169.974 33.8238 169.138 33.9482 168.191 33.9482ZM169.712 30.2891C170.493 30.2891 171.183 30.1356 171.781 29.8286C172.38 29.5133 172.849 29.0902 173.19 28.5592C173.531 28.0281 173.701 27.4266 173.701 26.7545V24.7258C173.535 24.8337 173.307 24.9333 173.016 25.0245C172.733 25.1075 172.413 25.1863 172.056 25.261C171.698 25.3274 171.341 25.3896 170.983 25.4477C170.626 25.4975 170.302 25.5431 170.011 25.5846C169.388 25.6759 168.843 25.8211 168.378 26.0202C167.912 26.2193 167.551 26.489 167.293 26.8292C167.035 27.1611 166.906 27.5759 166.906 28.0738C166.906 28.7956 167.168 29.3474 167.692 29.7291C168.224 30.1024 168.897 30.2891 169.712 30.2891Z" fill="black"/>
<path d="M185.774 8.09812V33.5873H180.463V8.09812H185.774Z" fill="black"/>
<path d="M196.048 33.9607C194.112 33.9607 192.437 33.55 191.024 32.7285C189.619 31.8988 188.534 30.7455 187.77 29.2686C187.005 27.7834 186.623 26.0617 186.623 24.1035C186.623 22.1288 187.005 20.403 187.77 18.926C188.534 17.4408 189.619 16.2875 191.024 15.4661C192.437 14.6364 194.112 14.2215 196.048 14.2215C197.985 14.2215 199.656 14.6364 201.06 15.4661C202.473 16.2875 203.562 17.4408 204.327 18.926C205.092 20.403 205.474 22.1288 205.474 24.1035C205.474 26.0617 205.092 27.7834 204.327 29.2686C203.562 30.7455 202.473 31.8988 201.06 32.7285C199.656 33.55 197.985 33.9607 196.048 33.9607ZM196.073 29.8535C196.954 29.8535 197.69 29.6046 198.28 29.1068C198.87 28.6006 199.315 27.912 199.614 27.0408C199.922 26.1695 200.075 25.178 200.075 24.0662C200.075 22.9544 199.922 21.9628 199.614 21.0916C199.315 20.2204 198.87 19.5317 198.28 19.0256C197.69 18.5195 196.954 18.2664 196.073 18.2664C195.184 18.2664 194.436 18.5195 193.829 19.0256C193.231 19.5317 192.778 20.2204 192.47 21.0916C192.171 21.9628 192.021 22.9544 192.021 24.0662C192.021 25.178 192.171 26.1695 192.47 27.0408C192.778 27.912 193.231 28.6006 193.829 29.1068C194.436 29.6046 195.184 29.8535 196.073 29.8535Z" fill="black"/>
<g clip-path="url(#clip0_5_154)">
<path fill-rule="evenodd" clip-rule="evenodd" d="M18.3777 41.254C18.6935 41.254 19.2615 40.9712 19.2615 40.25C19.2615 39.5287 18.6935 39.246 18.3777 39.246C18.0618 39.246 17.4938 39.5287 17.4938 40.25C17.4938 40.9712 18.0618 41.254 18.3777 41.254ZM13.4099 40.25C13.4099 37.4117 15.8063 35.4127 18.3777 35.4127C20.949 35.4127 23.3454 37.4117 23.3454 40.25C23.3454 43.0883 20.949 45.0873 18.3777 45.0873C15.8063 45.0873 13.4099 43.0883 13.4099 40.25Z" fill="black"/>
<path fill-rule="evenodd" clip-rule="evenodd" d="M40.8392 41.254C41.1551 41.254 41.7231 40.9712 41.7231 40.25C41.7231 39.5287 41.1551 39.246 40.8392 39.246C40.5234 39.246 39.9554 39.5287 39.9554 40.25C39.9554 40.9712 40.5234 41.254 40.8392 41.254ZM35.8715 40.25C35.8715 37.4117 38.2679 35.4127 40.8392 35.4127C43.4106 35.4127 45.807 37.4117 45.807 40.25C45.807 43.0883 43.4106 45.0873 40.8392 45.0873C38.2679 45.0873 35.8715 43.0883 35.8715 40.25Z" fill="black"/>
<path fill-rule="evenodd" clip-rule="evenodd" d="M-0.883789 1.91667C-0.883789 0.303645 0.426134 -1.00397 2.04201 -1.00397H10.2098L13.0715 1.30861L14.6219 8.57937H46.9651L49.8326 12.0805L46.5654 28.1614L46.5606 28.1844C46.2226 29.7819 45.3051 31.1771 44.0191 32.1488C42.7445 33.1118 41.1779 33.6094 39.5911 33.5873H19.7892C18.2024 33.6094 16.6358 33.1118 15.3613 32.1488C14.0761 31.1777 13.1589 29.7837 12.8203 28.1875C12.8201 28.1865 12.8199 28.1855 12.8197 28.1844L9.41515 12.2183C9.39721 12.1475 9.38186 12.0756 9.36921 12.0028L7.84128 4.8373H2.04201C0.426134 4.8373 -0.883789 3.52969 -0.883789 1.91667ZM15.8675 14.4206L18.5449 26.9772C18.5804 27.1446 18.6857 27.3348 18.8929 27.4913C19.1037 27.6506 19.3939 27.7523 19.7135 27.7465L19.7662 27.746H39.6141L39.6668 27.7465C39.9864 27.7523 40.2767 27.6506 40.4874 27.4913C40.6917 27.337 40.797 27.15 40.8338 26.9843L43.3864 14.4206H15.8675Z" fill="black"/>
</g>
<defs>
<clipPath id="clip0_5_154">
<rect width="49.0071" height="46" fill="white"/>
</clipPath>
</defs>
</svg>
