<svg viewBox="0 0 153 34" fill="none" xmlns="http://www.w3.org/2000/svg">
<path d="M61.0028 12.5814H56.9664C56.8927 12.0601 56.7422 11.597 56.5149 11.1923C56.2876 10.7814 55.9958 10.4318 55.6394 10.1436C55.2831 9.85534 54.8715 9.63456 54.4046 9.48124C53.9438 9.32792 53.4431 9.25127 52.9025 9.25127C51.9256 9.25127 51.0747 9.49351 50.3498 9.978C49.6249 10.4564 49.0627 11.1555 48.6634 12.0754C48.2641 12.9892 48.0644 14.0992 48.0644 15.4055C48.0644 16.7486 48.2641 17.877 48.6634 18.7908C49.0689 19.7045 49.6341 20.3945 50.359 20.8606C51.084 21.3267 51.9226 21.5597 52.8748 21.5597C53.4093 21.5597 53.9039 21.4892 54.3585 21.3481C54.8193 21.2071 55.2278 21.0016 55.5841 20.7318C55.9405 20.4558 56.2354 20.1216 56.4688 19.7291C56.7084 19.3366 56.8743 18.8889 56.9664 18.386L61.0028 18.4044C60.8983 19.2691 60.6372 20.1032 60.2195 20.9066C59.8079 21.7038 59.2519 22.4183 58.5515 23.05C57.8573 23.6755 57.0279 24.1723 56.0633 24.5402C55.1049 24.9021 54.0206 25.083 52.8103 25.083C51.127 25.083 49.6218 24.7027 48.2948 23.9423C46.9739 23.1818 45.9295 22.081 45.1615 20.6398C44.3997 19.1986 44.0188 17.4538 44.0188 15.4055C44.0188 13.351 44.4059 11.6032 45.18 10.162C45.9541 8.72078 47.0046 7.62302 48.3316 6.86869C49.6586 6.10823 51.1515 5.728 52.8103 5.728C53.9039 5.728 54.9176 5.88132 55.8514 6.18795C56.7914 6.49459 57.6238 6.94228 58.3488 7.53103C59.0737 8.11364 59.6635 8.82811 60.1181 9.67443C60.5789 10.5207 60.8738 11.4897 61.0028 12.5814Z" fill="white"/>
<path d="M68.2396 25.1014C66.8082 25.1014 65.5702 24.7978 64.5258 24.1907C63.4876 23.5774 62.6858 22.7249 62.1206 21.6333C61.5554 20.5355 61.2728 19.263 61.2728 17.8157C61.2728 16.3561 61.5554 15.0805 62.1206 13.9888C62.6858 12.8911 63.4876 12.0386 64.5258 11.4315C65.5702 10.8182 66.8082 10.5115 68.2396 10.5115C69.6711 10.5115 70.906 10.8182 71.9442 11.4315C72.9886 12.0386 73.7934 12.8911 74.3587 13.9888C74.9239 15.0805 75.2065 16.3561 75.2065 17.8157C75.2065 19.263 74.9239 20.5355 74.3587 21.6333C73.7934 22.7249 72.9886 23.5774 71.9442 24.1907C70.906 24.7978 69.6711 25.1014 68.2396 25.1014ZM68.2581 22.0657C68.9093 22.0657 69.453 21.8817 69.8892 21.5137C70.3254 21.1396 70.6541 20.6306 70.8752 19.9867C71.1025 19.3427 71.2162 18.6099 71.2162 17.7881C71.2162 16.9663 71.1025 16.2334 70.8752 15.5895C70.6541 14.9455 70.3254 14.4365 69.8892 14.0624C69.453 13.6883 68.9093 13.5013 68.2581 13.5013C67.6007 13.5013 67.0478 13.6883 66.5993 14.0624C66.157 14.4365 65.8221 14.9455 65.5948 15.5895C65.3736 16.2334 65.2631 16.9663 65.2631 17.7881C65.2631 18.6099 65.3736 19.3427 65.5948 19.9867C65.8221 20.6306 66.157 21.1396 66.5993 21.5137C67.0478 21.8817 67.6007 22.0657 68.2581 22.0657Z" fill="white"/>
<path d="M75.8128 24.8254V10.6955H79.5543V13.1885H79.7202C80.0151 12.3606 80.5065 11.7074 81.1946 11.2291C81.8827 10.7507 82.7059 10.5115 83.6643 10.5115C84.635 10.5115 85.4613 10.7538 86.1433 11.2383C86.8252 11.7166 87.2799 12.3667 87.5072 13.1885H87.6546C87.9434 12.379 88.4656 11.732 89.2212 11.2475C89.983 10.7569 90.8831 10.5115 91.9213 10.5115C93.2422 10.5115 94.3143 10.9316 95.1375 11.7718C95.9669 12.6059 96.3816 13.7895 96.3816 15.3227V24.8254H92.465V16.0954C92.465 15.3104 92.2562 14.7217 91.8384 14.3292C91.4206 13.9367 90.8984 13.7404 90.2718 13.7404C89.5591 13.7404 89.0031 13.9674 88.6038 14.4212C88.2045 14.8689 88.0048 15.4607 88.0048 16.1966V24.8254H84.1988V16.0126C84.1988 15.3196 83.9992 14.7677 83.5998 14.3568C83.2066 13.9459 82.6875 13.7404 82.0424 13.7404C81.6062 13.7404 81.2131 13.8508 80.8629 14.0716C80.5188 14.2863 80.2454 14.5898 80.0427 14.9823C79.84 15.3687 79.7386 15.8225 79.7386 16.3438V24.8254H75.8128Z" fill="white"/>
<path d="M97.5363 30.1241V10.6955H101.407V13.0689H101.582C101.754 12.6887 102.003 12.3023 102.328 11.9098C102.66 11.5112 103.09 11.18 103.618 10.9163C104.153 10.6465 104.816 10.5115 105.609 10.5115C106.641 10.5115 107.593 10.7814 108.466 11.3211C109.338 11.8546 110.035 12.6611 110.558 13.7404C111.08 14.8137 111.341 16.1598 111.341 17.7789C111.341 19.355 111.086 20.6858 110.576 21.7713C110.072 22.8507 109.384 23.6694 108.512 24.2275C107.646 24.7794 106.675 25.0554 105.6 25.0554C104.838 25.0554 104.19 24.9297 103.655 24.6782C103.127 24.4268 102.694 24.1109 102.356 23.7307C102.018 23.3443 101.76 22.9549 101.582 22.5624H101.462V30.1241H97.5363ZM101.379 17.7605C101.379 18.6007 101.496 19.3335 101.729 19.9591C101.963 20.5846 102.301 21.0722 102.743 21.4217C103.185 21.7652 103.723 21.9369 104.356 21.9369C104.995 21.9369 105.535 21.7621 105.978 21.4125C106.42 21.0568 106.755 20.5662 106.982 19.9407C107.215 19.309 107.332 18.5823 107.332 17.7605C107.332 16.9448 107.219 16.2273 106.991 15.6079C106.764 14.9885 106.429 14.504 105.987 14.1544C105.544 13.8048 105.001 13.6301 104.356 13.6301C103.717 13.6301 103.176 13.7987 102.734 14.136C102.298 14.4733 101.963 14.9517 101.729 15.5711C101.496 16.1905 101.379 16.9203 101.379 17.7605Z" fill="white"/>
<path d="M112.012 24.8254V10.6955H115.818V13.1609H115.965C116.223 12.2839 116.656 11.6216 117.265 11.1739C117.873 10.7201 118.573 10.4931 119.366 10.4931C119.562 10.4931 119.774 10.5054 120.002 10.5299C120.229 10.5545 120.429 10.5882 120.601 10.6311V14.1084C120.416 14.0532 120.161 14.0042 119.836 13.9612C119.51 13.9183 119.212 13.8968 118.942 13.8968C118.364 13.8968 117.848 14.0225 117.394 14.274C116.945 14.5193 116.589 14.8627 116.325 15.3043C116.067 15.7459 115.938 16.2549 115.938 16.8314V24.8254H112.012Z" fill="white"/>
<path d="M124.315 25.0922C123.412 25.0922 122.607 24.9358 121.9 24.623C121.194 24.3041 120.635 23.835 120.223 23.2155C119.818 22.59 119.615 21.8111 119.615 20.879C119.615 20.094 119.759 19.4347 120.048 18.9012C120.337 18.3676 120.73 17.9383 121.228 17.6133C121.725 17.2882 122.29 17.0429 122.923 16.8773C123.562 16.7118 124.232 16.5952 124.932 16.5278C125.755 16.4419 126.419 16.3622 126.923 16.2886C127.427 16.2089 127.792 16.0924 128.019 15.939C128.247 15.7857 128.36 15.5588 128.36 15.2583V15.2031C128.36 14.6205 128.176 14.1697 127.807 13.8508C127.445 13.5319 126.929 13.3725 126.259 13.3725C125.553 13.3725 124.991 13.5289 124.573 13.8416C124.155 14.1483 123.879 14.5346 123.743 15.0007L120.113 14.7064C120.297 13.8478 120.659 13.1057 121.2 12.4802C121.741 11.8485 122.438 11.364 123.292 11.0267C124.152 10.6833 125.147 10.5115 126.278 10.5115C127.064 10.5115 127.817 10.6035 128.535 10.7875C129.26 10.9715 129.902 11.2567 130.461 11.643C131.027 12.0294 131.472 12.5262 131.798 13.1333C132.123 13.7343 132.286 14.4549 132.286 15.2951V24.8254H128.563V22.866H128.453C128.225 23.3075 127.921 23.697 127.54 24.0343C127.159 24.3654 126.702 24.6261 126.167 24.8162C125.633 25.0002 125.015 25.0922 124.315 25.0922ZM125.439 22.3876C126.017 22.3876 126.526 22.2742 126.969 22.0473C127.411 21.8142 127.758 21.5014 128.01 21.1089C128.262 20.7165 128.388 20.2718 128.388 19.7751V18.2756C128.265 18.3553 128.096 18.4289 127.881 18.4964C127.672 18.5577 127.436 18.616 127.172 18.6712C126.907 18.7202 126.643 18.7662 126.379 18.8092C126.115 18.846 125.875 18.8797 125.66 18.9104C125.199 18.9778 124.797 19.0851 124.453 19.2323C124.109 19.3795 123.842 19.5788 123.651 19.8303C123.461 20.0756 123.366 20.3822 123.366 20.7502C123.366 21.2837 123.559 21.6916 123.946 21.9737C124.339 22.2496 124.837 22.3876 125.439 22.3876Z" fill="white"/>
<path d="M137.311 5.98557V24.8254H133.386V5.98557H137.311Z" fill="white"/>
<path d="M144.905 25.1014C143.474 25.1014 142.236 24.7978 141.191 24.1907C140.153 23.5774 139.351 22.7249 138.786 21.6333C138.221 20.5355 137.938 19.263 137.938 17.8157C137.938 16.3561 138.221 15.0805 138.786 13.9888C139.351 12.8911 140.153 12.0386 141.191 11.4315C142.236 10.8182 143.474 10.5115 144.905 10.5115C146.337 10.5115 147.572 10.8182 148.61 11.4315C149.654 12.0386 150.459 12.8911 151.024 13.9888C151.589 15.0805 151.872 16.3561 151.872 17.8157C151.872 19.263 151.589 20.5355 151.024 21.6333C150.459 22.7249 149.654 23.5774 148.61 24.1907C147.572 24.7978 146.337 25.1014 144.905 25.1014ZM144.924 22.0657C145.575 22.0657 146.119 21.8817 146.555 21.5137C146.991 21.1396 147.32 20.6306 147.541 19.9867C147.768 19.3427 147.882 18.6099 147.882 17.7881C147.882 16.9663 147.768 16.2334 147.541 15.5895C147.32 14.9455 146.991 14.4365 146.555 14.0624C146.119 13.6883 145.575 13.5013 144.924 13.5013C144.266 13.5013 143.713 13.6883 143.265 14.0624C142.823 14.4365 142.488 14.9455 142.26 15.5895C142.039 16.2334 141.929 16.9663 141.929 17.7881C141.929 18.6099 142.039 19.3427 142.26 19.9867C142.488 20.6306 142.823 21.1396 143.265 21.5137C143.713 21.8817 144.266 22.0657 144.924 22.0657Z" fill="white"/>
<g clip-path="url(#clip0_5_159)">
<path fill-rule="evenodd" clip-rule="evenodd" d="M13.5835 30.4921C13.8169 30.4921 14.2368 30.2831 14.2368 29.75C14.2368 29.2169 13.8169 29.0079 13.5835 29.0079C13.35 29.0079 12.9302 29.2169 12.9302 29.75C12.9302 30.2831 13.35 30.4921 13.5835 30.4921ZM9.91167 29.75C9.91167 27.6521 11.6829 26.1746 13.5835 26.1746C15.484 26.1746 17.2553 27.6521 17.2553 29.75C17.2553 31.8479 15.484 33.3254 13.5835 33.3254C11.6829 33.3254 9.91167 31.8479 9.91167 29.75Z" fill="white"/>
<path fill-rule="evenodd" clip-rule="evenodd" d="M30.1855 30.4921C30.419 30.4921 30.8388 30.2831 30.8388 29.75C30.8388 29.2169 30.419 29.0079 30.1855 29.0079C29.9521 29.0079 29.5322 29.2169 29.5322 29.75C29.5322 30.2831 29.9521 30.4921 30.1855 30.4921ZM26.5137 29.75C26.5137 27.6521 28.285 26.1746 30.1855 26.1746C32.0861 26.1746 33.8573 27.6521 33.8573 29.75C33.8573 31.8479 32.0861 33.3254 30.1855 33.3254C28.285 33.3254 26.5137 31.8479 26.5137 29.75Z" fill="white"/>
<path fill-rule="evenodd" clip-rule="evenodd" d="M-0.653275 1.41666C-0.653275 0.224431 0.314929 -0.742065 1.50927 -0.742065H7.54637L9.66153 0.967232L10.8075 6.34127H34.7133L36.8327 8.92908L34.4179 20.8149L34.4143 20.832C34.1645 22.0127 33.4863 23.0439 32.5358 23.7622C31.5937 24.474 30.4358 24.8417 29.2629 24.8254H14.6268C13.4539 24.8417 12.296 24.474 11.3539 23.7622C10.404 23.0444 9.72608 22.014 9.47585 20.8342C9.47569 20.8335 9.47553 20.8327 9.47537 20.832L6.95899 9.03089C6.94573 8.97855 6.93438 8.92545 6.92503 8.87166L5.79569 3.5754H1.50927C0.314929 3.5754 -0.653275 2.6089 -0.653275 1.41666ZM11.7281 10.6587L13.7071 19.9397C13.7333 20.0634 13.8111 20.2039 13.9643 20.3197C14.1201 20.4374 14.3346 20.5125 14.5708 20.5083L14.6098 20.5079H29.2799L29.3189 20.5083C29.5551 20.5125 29.7697 20.4374 29.9254 20.3197C30.0764 20.2056 30.1542 20.0674 30.1815 19.9449L32.0682 10.6587H11.7281Z" fill="white"/>
</g>
<defs>
<clipPath id="clip0_5_159">
<rect width="36.2226" height="34" fill="white"/>
</clipPath>
</defs>
</svg>
